<svg xmlns="http://www.w3.org/2000/svg" viewBox="0 0 288 560" style="enable-background:new 0 0 288 560" xml:space="preserve">
    <path d="M-173.126 99.76c64.02-110.965 183.886-185.652 321.2-185.652 26.21 0 51.781 2.727 76.453 7.902M-218.986 233.54a373.827 373.827 0 0 0-3.503 51.131c0 204.656 165.907 370.563 370.563 370.563S518.636 489.326 518.636 284.67c0-69.363-19.063-134.272-52.228-189.782m17.802 146.919s-206-14-270 15-128 361-128 361m381-412c4.864-35.56-9.585-65.098-27-70-19.89-5.599-54.722 17.825-63 64m-80 3a258.48 258.48 0 0 0-54-64 258.37 258.37 0 0 0-66-41m16-11s-58-110-91-110-59 86-59 86-48-3-91 22-65 53-65 53-88-31-108-10 40 123 40 123m15 3a404.031 404.031 0 0 0 5 128 404.056 404.056 0 0 0 46 122m75-308c-2.876-.95-21.376-6.719-40 4-19.883 11.444-23.566 32.276-24 35m225-97c-1.999-1.123-20.451-11.07-41-2-20.182 8.908-25.426 28.674-26 31m-121-28c-3.684.101-14.667.879-25 9-9.265 7.282-12.805 16.38-14 20m189-74c-3.91-1.82-13.995-5.88-27-4-11.675 1.687-19.602 7.28-23 10m-44 141c-1.975.427-23.912 5.506-30 23-7.602 21.847 14.683 48.211 34 50 23.689 2.193 40.98-32.75 51-53 6.526-13.188 21.004-42.445 11-52-11.776-11.249-55.407 6.791-56 24-.546 15.864 35.58 28.158 55 32 17.79 3.52 46.83 9.266 59-8 10.913-15.482 5.771-45.938-14-55-14.804-6.786-30.66 1.702-33 3m-41 111c4.65 1.03 23.06 4.537 42-6 15.745-8.759 22.748-22.155 25-27m192.433-175.05c19.436 4.052 91.285 16.576 152.682-26.944 13.765-9.757 54.25-44.252 50.257-90.292-4.216-48.623-56.178-75.75-84.685-87.837-36.332-15.405-90.555-31.61-131.446-.58-37.813 28.694-48.069 84.487-25.727 115.84 20.398 28.626 62.725 24.089 67.36 46.403 3.173 15.277-13.672 31.808-28.441 43.41zm-146.52-37.24s-21.051-50.523-30.875-50.523S90.406 59.29 90.406 59.29m-220.341 108.065s-35.086-23.858-46.314-12.63 26.666 57.54 26.666 57.54m567.47 277.179c1.2-24.005-9.603-40.808-18.004-61.213 4.8-22.804 1.2-50.41-26.406-57.611-27.605-7.202-43.209 27.605-48.01 56.411-18.003 4.801-27.605 25.205-27.605 25.205s32.406 15.604 26.405 36.008-13.203 33.607-38.408 27.605c1.2 24.005 10.803 57.612 55.212 45.61m79.216-242.45c-1.801-.5-13.64-3.576-24.005 3.6-9.728 6.737-14.17 19.747-10.802 32.408m-74.416-434.49L285.86 8.147m56.412-72.015-22.805 79.216m-20.404-46.81 32.407 7.202m48.61 1.2-20.204 63.613m22.805-79.216 4.8-14.403m48.41 10.802-22.805 51.61m-6.002 22.805-8.402 15.604" style="opacity:.49;fill:none;stroke:#000;stroke-width:10;stroke-miterlimit:10"/>
</svg>
